<?xml version="1.0" encoding="UTF-8" standalone="no"?>
<!DOCTYPE svg PUBLIC "-//W3C//DTD SVG 1.1//EN"
 "http://www.w3.org/Graphics/SVG/1.1/DTD/svg11.dtd">
<!-- Generated by graphviz version 2.47.3 (20210619.1520)
 -->
<!-- Title: dependencies Pages: 1 -->
<svg width="2482pt" height="247pt"
 viewBox="0.00 0.00 2482.00 246.80" xmlns="http://www.w3.org/2000/svg" xmlns:xlink="http://www.w3.org/1999/xlink">
<g id="graph0" class="graph" transform="scale(1 1) rotate(0) translate(4 242.8)">
<title>dependencies</title>
<polygon fill="white" stroke="transparent" points="-4,4 -4,-242.8 2478,-242.8 2478,4 -4,4"/>
<text text-anchor="middle" x="1237" y="-8.2" font-family="sans-serif" font-size="14.00">dependencies</text>
<g id="clust1" class="cluster">
<title>cluster_AppModule</title>
<polygon fill="none" stroke="black" stroke-dasharray="1,5" points="8,-32.8 8,-230.8 2466,-230.8 2466,-32.8 8,-32.8"/>
</g>
<g id="clust2" class="cluster">
<title>cluster_AppModule_declarations</title>
<polygon fill="none" stroke="black" points="332,-40.8 332,-92.8 2458,-92.8 2458,-40.8 332,-40.8"/>
</g>
<g id="clust21" class="cluster">
<title>cluster_AppModule_providers</title>
<polygon fill="none" stroke="black" points="168,-40.8 168,-92.8 324,-92.8 324,-40.8 168,-40.8"/>
</g>
<g id="clust18" class="cluster">
<title>cluster_AppModule_imports</title>
<polygon fill="none" stroke="black" points="16,-40.8 16,-92.8 160,-92.8 160,-40.8 16,-40.8"/>
</g>
<g id="clust20" class="cluster">
<title>cluster_AppModule_bootstrap</title>
<polygon fill="none" stroke="black" points="1199,-170.8 1199,-222.8 1323,-222.8 1323,-170.8 1199,-170.8"/>
</g>
<!-- AboutUsComponent -->
<g id="node1" class="node">
<title>AboutUsComponent</title>
<polygon fill="#ffffb3" stroke="black" points="2449.88,-84.8 2318.12,-84.8 2318.12,-48.8 2449.88,-48.8 2449.88,-84.8"/>
<text text-anchor="middle" x="2384" y="-62.6" font-family="Times,serif" font-size="14.00">AboutUsComponent</text>
</g>
<!-- AppModule -->
<g id="node16" class="node">
<title>AppModule</title>
<polygon fill="#8dd3c7" stroke="black" points="1302.66,-149.8 1299.66,-153.8 1278.66,-153.8 1275.66,-149.8 1219.34,-149.8 1219.34,-113.8 1302.66,-113.8 1302.66,-149.8"/>
<text text-anchor="middle" x="1261" y="-127.6" font-family="Times,serif" font-size="14.00">AppModule</text>
</g>
<!-- AboutUsComponent&#45;&gt;AppModule -->
<g id="edge1" class="edge">
<title>AboutUsComponent&#45;&gt;AppModule</title>
<path fill="none" stroke="black" d="M2384,-85.12C2384,-108.46 2384,-145.8 2384,-145.8 2384,-145.8 1312.97,-145.8 1312.97,-145.8"/>
<polygon fill="black" stroke="black" points="1312.97,-142.3 1302.97,-145.8 1312.97,-149.3 1312.97,-142.3"/>
</g>
<!-- AppComponent -->
<g id="node2" class="node">
<title>AppComponent</title>
<polygon fill="#ffffb3" stroke="black" points="2299.94,-84.8 2194.06,-84.8 2194.06,-48.8 2299.94,-48.8 2299.94,-84.8"/>
<text text-anchor="middle" x="2247" y="-62.6" font-family="Times,serif" font-size="14.00">AppComponent</text>
</g>
<!-- AppComponent&#45;&gt;AppModule -->
<g id="edge2" class="edge">
<title>AppComponent&#45;&gt;AppModule</title>
<path fill="none" stroke="black" d="M2247,-84.96C2247,-107.15 2247,-141.8 2247,-141.8 2247,-141.8 1312.74,-141.8 1312.74,-141.8"/>
<polygon fill="black" stroke="black" points="1312.74,-138.3 1302.74,-141.8 1312.74,-145.3 1312.74,-138.3"/>
</g>
<!-- BeerComponent -->
<g id="node3" class="node">
<title>BeerComponent</title>
<polygon fill="#ffffb3" stroke="black" points="2175.76,-84.8 2068.24,-84.8 2068.24,-48.8 2175.76,-48.8 2175.76,-84.8"/>
<text text-anchor="middle" x="2122" y="-62.6" font-family="Times,serif" font-size="14.00">BeerComponent</text>
</g>
<!-- BeerComponent&#45;&gt;AppModule -->
<g id="edge3" class="edge">
<title>BeerComponent&#45;&gt;AppModule</title>
<path fill="none" stroke="black" d="M2122,-85.08C2122,-106.12 2122,-137.8 2122,-137.8 2122,-137.8 1312.82,-137.8 1312.82,-137.8"/>
<polygon fill="black" stroke="black" points="1312.82,-134.3 1302.82,-137.8 1312.82,-141.3 1312.82,-134.3"/>
</g>
<!-- CarritoComponent -->
<g id="node4" class="node">
<title>CarritoComponent</title>
<polygon fill="#ffffb3" stroke="black" points="2050.49,-84.8 1929.51,-84.8 1929.51,-48.8 2050.49,-48.8 2050.49,-84.8"/>
<text text-anchor="middle" x="1990" y="-62.6" font-family="Times,serif" font-size="14.00">CarritoComponent</text>
</g>
<!-- CarritoComponent&#45;&gt;AppModule -->
<g id="edge4" class="edge">
<title>CarritoComponent&#45;&gt;AppModule</title>
<path fill="none" stroke="black" d="M1990,-85.11C1990,-104.95 1990,-133.8 1990,-133.8 1990,-133.8 1312.81,-133.8 1312.81,-133.8"/>
<polygon fill="black" stroke="black" points="1312.81,-130.3 1302.81,-133.8 1312.81,-137.3 1312.81,-130.3"/>
</g>
<!-- ChampagneComponent -->
<g id="node5" class="node">
<title>ChampagneComponent</title>
<polygon fill="#ffffb3" stroke="black" points="1911.2,-84.8 1762.8,-84.8 1762.8,-48.8 1911.2,-48.8 1911.2,-84.8"/>
<text text-anchor="middle" x="1837" y="-62.6" font-family="Times,serif" font-size="14.00">ChampagneComponent</text>
</g>
<!-- ChampagneComponent&#45;&gt;AppModule -->
<g id="edge5" class="edge">
<title>ChampagneComponent&#45;&gt;AppModule</title>
<path fill="none" stroke="black" d="M1837,-85.02C1837,-103.63 1837,-129.8 1837,-129.8 1837,-129.8 1312.89,-129.8 1312.89,-129.8"/>
<polygon fill="black" stroke="black" points="1312.89,-126.3 1302.89,-129.8 1312.89,-133.3 1312.89,-126.3"/>
</g>
<!-- ContactComponent -->
<g id="node6" class="node">
<title>ContactComponent</title>
<polygon fill="#ffffb3" stroke="black" points="1744.38,-84.8 1619.62,-84.8 1619.62,-48.8 1744.38,-48.8 1744.38,-84.8"/>
<text text-anchor="middle" x="1682" y="-62.6" font-family="Times,serif" font-size="14.00">ContactComponent</text>
</g>
<!-- ContactComponent&#45;&gt;AppModule -->
<g id="edge6" class="edge">
<title>ContactComponent&#45;&gt;AppModule</title>
<path fill="none" stroke="black" d="M1682,-84.82C1682,-102.17 1682,-125.8 1682,-125.8 1682,-125.8 1312.91,-125.8 1312.91,-125.8"/>
<polygon fill="black" stroke="black" points="1312.91,-122.3 1302.91,-125.8 1312.91,-129.3 1312.91,-122.3"/>
</g>
<!-- CoverageComponent -->
<g id="node7" class="node">
<title>CoverageComponent</title>
<polygon fill="#ffffb3" stroke="black" points="1601.47,-84.8 1466.53,-84.8 1466.53,-48.8 1601.47,-48.8 1601.47,-84.8"/>
<text text-anchor="middle" x="1534" y="-62.6" font-family="Times,serif" font-size="14.00">CoverageComponent</text>
</g>
<!-- CoverageComponent&#45;&gt;AppModule -->
<g id="edge7" class="edge">
<title>CoverageComponent&#45;&gt;AppModule</title>
<path fill="none" stroke="black" d="M1534,-84.81C1534,-100.85 1534,-121.8 1534,-121.8 1534,-121.8 1312.76,-121.8 1312.76,-121.8"/>
<polygon fill="black" stroke="black" points="1312.76,-118.3 1302.76,-121.8 1312.76,-125.3 1312.76,-118.3"/>
</g>
<!-- ErrorComponent -->
<g id="node8" class="node">
<title>ErrorComponent</title>
<polygon fill="#ffffb3" stroke="black" points="1448.37,-84.8 1337.63,-84.8 1337.63,-48.8 1448.37,-48.8 1448.37,-84.8"/>
<text text-anchor="middle" x="1393" y="-62.6" font-family="Times,serif" font-size="14.00">ErrorComponent</text>
</g>
<!-- ErrorComponent&#45;&gt;AppModule -->
<g id="edge8" class="edge">
<title>ErrorComponent&#45;&gt;AppModule</title>
<path fill="none" stroke="black" d="M1393,-84.92C1393,-99.58 1393,-117.8 1393,-117.8 1393,-117.8 1312.77,-117.8 1312.77,-117.8"/>
<polygon fill="black" stroke="black" points="1312.77,-114.3 1302.77,-117.8 1312.77,-121.3 1312.77,-114.3"/>
</g>
<!-- FooterComponent -->
<g id="node9" class="node">
<title>FooterComponent</title>
<polygon fill="#ffffb3" stroke="black" points="1319.88,-84.8 1202.12,-84.8 1202.12,-48.8 1319.88,-48.8 1319.88,-84.8"/>
<text text-anchor="middle" x="1261" y="-62.6" font-family="Times,serif" font-size="14.00">FooterComponent</text>
</g>
<!-- FooterComponent&#45;&gt;AppModule -->
<g id="edge9" class="edge">
<title>FooterComponent&#45;&gt;AppModule</title>
<path fill="none" stroke="black" d="M1261,-84.91C1261,-84.91 1261,-103.79 1261,-103.79"/>
<polygon fill="black" stroke="black" points="1257.5,-103.79 1261,-113.79 1264.5,-103.79 1257.5,-103.79"/>
</g>
<!-- HeaderComponent -->
<g id="node10" class="node">
<title>HeaderComponent</title>
<polygon fill="#ffffb3" stroke="black" points="1183.74,-84.8 1062.26,-84.8 1062.26,-48.8 1183.74,-48.8 1183.74,-84.8"/>
<text text-anchor="middle" x="1123" y="-62.6" font-family="Times,serif" font-size="14.00">HeaderComponent</text>
</g>
<!-- HeaderComponent&#45;&gt;AppModule -->
<g id="edge10" class="edge">
<title>HeaderComponent&#45;&gt;AppModule</title>
<path fill="none" stroke="black" d="M1123,-84.92C1123,-99.58 1123,-117.8 1123,-117.8 1123,-117.8 1209.22,-117.8 1209.22,-117.8"/>
<polygon fill="black" stroke="black" points="1209.22,-121.3 1219.22,-117.8 1209.22,-114.3 1209.22,-121.3"/>
</g>
<!-- HomeComponent -->
<g id="node11" class="node">
<title>HomeComponent</title>
<polygon fill="#ffffb3" stroke="black" points="1043.55,-84.8 928.45,-84.8 928.45,-48.8 1043.55,-48.8 1043.55,-84.8"/>
<text text-anchor="middle" x="986" y="-62.6" font-family="Times,serif" font-size="14.00">HomeComponent</text>
</g>
<!-- HomeComponent&#45;&gt;AppModule -->
<g id="edge11" class="edge">
<title>HomeComponent&#45;&gt;AppModule</title>
<path fill="none" stroke="black" d="M986,-84.81C986,-100.85 986,-121.8 986,-121.8 986,-121.8 1209.23,-121.8 1209.23,-121.8"/>
<polygon fill="black" stroke="black" points="1209.23,-125.3 1219.23,-121.8 1209.23,-118.3 1209.23,-125.3"/>
</g>
<!-- HowtocallComponent -->
<g id="node12" class="node">
<title>HowtocallComponent</title>
<polygon fill="#ffffb3" stroke="black" points="909.65,-84.8 770.35,-84.8 770.35,-48.8 909.65,-48.8 909.65,-84.8"/>
<text text-anchor="middle" x="840" y="-62.6" font-family="Times,serif" font-size="14.00">HowtocallComponent</text>
</g>
<!-- HowtocallComponent&#45;&gt;AppModule -->
<g id="edge12" class="edge">
<title>HowtocallComponent&#45;&gt;AppModule</title>
<path fill="none" stroke="black" d="M840,-84.82C840,-102.17 840,-125.8 840,-125.8 840,-125.8 1209.09,-125.8 1209.09,-125.8"/>
<polygon fill="black" stroke="black" points="1209.09,-129.3 1219.09,-125.8 1209.09,-122.3 1209.09,-129.3"/>
</g>
<!-- ProviderComponent -->
<g id="node13" class="node">
<title>ProviderComponent</title>
<polygon fill="#ffffb3" stroke="black" points="751.54,-84.8 622.46,-84.8 622.46,-48.8 751.54,-48.8 751.54,-84.8"/>
<text text-anchor="middle" x="687" y="-62.6" font-family="Times,serif" font-size="14.00">ProviderComponent</text>
</g>
<!-- ProviderComponent&#45;&gt;AppModule -->
<g id="edge13" class="edge">
<title>ProviderComponent&#45;&gt;AppModule</title>
<path fill="none" stroke="black" d="M687,-85.02C687,-103.63 687,-129.8 687,-129.8 687,-129.8 1209.26,-129.8 1209.26,-129.8"/>
<polygon fill="black" stroke="black" points="1209.26,-133.3 1219.26,-129.8 1209.26,-126.3 1209.26,-133.3"/>
</g>
<!-- SecurityComponent -->
<g id="node14" class="node">
<title>SecurityComponent</title>
<polygon fill="#ffffb3" stroke="black" points="603.99,-84.8 476.01,-84.8 476.01,-48.8 603.99,-48.8 603.99,-84.8"/>
<text text-anchor="middle" x="540" y="-62.6" font-family="Times,serif" font-size="14.00">SecurityComponent</text>
</g>
<!-- SecurityComponent&#45;&gt;AppModule -->
<g id="edge14" class="edge">
<title>SecurityComponent&#45;&gt;AppModule</title>
<path fill="none" stroke="black" d="M540,-85.11C540,-104.95 540,-133.8 540,-133.8 540,-133.8 1209.12,-133.8 1209.12,-133.8"/>
<polygon fill="black" stroke="black" points="1209.12,-137.3 1219.12,-133.8 1209.12,-130.3 1209.12,-137.3"/>
</g>
<!-- VodkaComponent -->
<g id="node15" class="node">
<title>VodkaComponent</title>
<polygon fill="#ffffb3" stroke="black" points="458.15,-84.8 339.85,-84.8 339.85,-48.8 458.15,-48.8 458.15,-84.8"/>
<text text-anchor="middle" x="399" y="-62.6" font-family="Times,serif" font-size="14.00">VodkaComponent</text>
</g>
<!-- VodkaComponent&#45;&gt;AppModule -->
<g id="edge15" class="edge">
<title>VodkaComponent&#45;&gt;AppModule</title>
<path fill="none" stroke="black" d="M399,-85.08C399,-106.12 399,-137.8 399,-137.8 399,-137.8 1209.13,-137.8 1209.13,-137.8"/>
<polygon fill="black" stroke="black" points="1209.13,-141.3 1219.13,-137.8 1209.13,-134.3 1209.13,-141.3"/>
</g>
<!-- AppComponent  -->
<g id="node18" class="node">
<title>AppComponent </title>
<polygon fill="#80b1d3" stroke="black" points="1315.44,-214.8 1206.56,-214.8 1206.56,-178.8 1315.44,-178.8 1315.44,-214.8"/>
<text text-anchor="middle" x="1261" y="-192.6" font-family="Times,serif" font-size="14.00">AppComponent </text>
</g>
<!-- AppModule&#45;&gt;AppComponent  -->
<g id="edge17" class="edge">
<title>AppModule&#45;&gt;AppComponent </title>
<path fill="none" stroke="black" stroke-dasharray="1,5" d="M1261,-149.91C1261,-149.91 1261,-168.79 1261,-168.79"/>
<polygon fill="black" stroke="black" points="1257.5,-168.79 1261,-178.79 1264.5,-168.79 1257.5,-168.79"/>
</g>
<!-- AppRoutingModule -->
<g id="node17" class="node">
<title>AppRoutingModule</title>
<polygon fill="#8dd3c7" stroke="black" points="152.27,-84.8 149.27,-88.8 128.27,-88.8 125.27,-84.8 23.73,-84.8 23.73,-48.8 152.27,-48.8 152.27,-84.8"/>
<text text-anchor="middle" x="88" y="-62.6" font-family="Times,serif" font-size="14.00">AppRoutingModule</text>
</g>
<!-- AppRoutingModule&#45;&gt;AppModule -->
<g id="edge16" class="edge">
<title>AppRoutingModule&#45;&gt;AppModule</title>
<path fill="none" stroke="black" d="M88,-85.12C88,-108.46 88,-145.8 88,-145.8 88,-145.8 1209.25,-145.8 1209.25,-145.8"/>
<polygon fill="black" stroke="black" points="1209.25,-149.3 1219.25,-145.8 1209.25,-142.3 1209.25,-149.3"/>
</g>
<!-- ProductService -->
<g id="node19" class="node">
<title>ProductService</title>
<ellipse fill="#fdb462" stroke="black" cx="246" cy="-66.8" rx="70.06" ry="18"/>
<text text-anchor="middle" x="246" y="-62.6" font-family="Times,serif" font-size="14.00">ProductService</text>
</g>
<!-- ProductService&#45;&gt;AppModule -->
<g id="edge18" class="edge">
<title>ProductService&#45;&gt;AppModule</title>
<path fill="none" stroke="black" d="M246,-84.96C246,-107.15 246,-141.8 246,-141.8 246,-141.8 1209.32,-141.8 1209.32,-141.8"/>
<polygon fill="black" stroke="black" points="1209.32,-145.3 1219.32,-141.8 1209.32,-138.3 1209.32,-145.3"/>
</g>
</g>
</svg>
