<svg xmlns="http://www.w3.org/2000/svg" xmlns:xlink="http://www.w3.org/1999/xlink" viewBox="0 0 101.56 101.72"><defs><style>.cls-1{fill:none;}.cls-2{fill:#1daa99;}.cls-3{fill:#fc7572;}.cls-4{fill:url(#Degradado_sin_nombre_12);}.cls-5{clip-path:url(#clip-path);}.cls-6{fill:url(#Degradado_sin_nombre_12-3);}.cls-7{fill:url(#Degradado_sin_nombre_12-4);}.cls-8{clip-path:url(#clip-path-2);}.cls-9{fill:url(#Degradado_sin_nombre_12-6);}.cls-10{fill:url(#Degradado_sin_nombre_12-7);}.cls-11{clip-path:url(#clip-path-3);}.cls-12{fill:url(#Degradado_sin_nombre_12-9);}.cls-13{fill:url(#Degradado_sin_nombre_12-10);}.cls-14{clip-path:url(#clip-path-4);}.cls-15{fill:url(#Degradado_sin_nombre_12-12);}.cls-16{fill:#fff;}</style><linearGradient id="Degradado_sin_nombre_12" x1="59.4" y1="527.98" x2="59.4" y2="571.83" gradientTransform="matrix(1, 0, 0, -1, 0, 603.63)" gradientUnits="userSpaceOnUse"><stop offset="0" stop-color="#f44545"/><stop offset="0.53" stop-color="#f85d5c"/><stop offset="0.97" stop-color="#fc7572"/></linearGradient><clipPath id="clip-path"><path class="cls-1" d="M61.72,72.91V34.55a2.35,2.35,0,1,0-4.64,0V72.91a2.35,2.35,0,1,0,4.64,0"/></clipPath><linearGradient id="Degradado_sin_nombre_12-3" x1="59.41" y1="527.98" x2="59.41" y2="571.82" xlink:href="#Degradado_sin_nombre_12"/><linearGradient id="Degradado_sin_nombre_12-4" x1="52.01" y1="526.95" x2="52.01" y2="569.23" xlink:href="#Degradado_sin_nombre_12"/><clipPath id="clip-path-2"><path class="cls-1" d="M54.33,74V37a2.34,2.34,0,1,0-4.64,0V74a2.34,2.34,0,1,0,4.64,0"/></clipPath><linearGradient id="Degradado_sin_nombre_12-6" x1="52.02" y1="526.96" x2="52.02" y2="569.24" xlink:href="#Degradado_sin_nombre_12"/><linearGradient id="Degradado_sin_nombre_12-7" x1="37.36" y1="527.98" x2="37.36" y2="571.83" xlink:href="#Degradado_sin_nombre_12"/><clipPath id="clip-path-3"><path class="cls-1" d="M35,72.91V34.55a2.57,2.57,0,0,1,2.32-2.75,2.57,2.57,0,0,1,2.32,2.75V72.91a2.56,2.56,0,0,1-2.32,2.74A2.56,2.56,0,0,1,35,72.91"/></clipPath><linearGradient id="Degradado_sin_nombre_12-9" x1="37.36" y1="527.98" x2="37.36" y2="571.82" xlink:href="#Degradado_sin_nombre_12"/><linearGradient id="Degradado_sin_nombre_12-10" x1="44.69" y1="526.34" x2="44.69" y2="568.62" xlink:href="#Degradado_sin_nombre_12"/><clipPath id="clip-path-4"><path class="cls-1" d="M42.37,74.65v-37a2.34,2.34,0,1,1,4.64,0v37a2.34,2.34,0,1,1-4.64,0"/></clipPath><linearGradient id="Degradado_sin_nombre_12-12" x1="44.69" y1="526.35" x2="44.69" y2="568.63" xlink:href="#Degradado_sin_nombre_12"/></defs><title>Recurso 60</title><g id="Capa_2" data-name="Capa 2"><g id="Capa_1-2" data-name="Capa 1"><path class="cls-2" d="M0,50.86a50.78,50.78,0,1,1,50.78,50.86A50.82,50.82,0,0,1,0,50.86"/><path class="cls-3" d="M32,36.21V73.42s-3.33,3.17-.53,6c3.49,3.5,9.65,4.25,14.32,4.53,5.77.35,12.09-.12,17.26-2.92a6.84,6.84,0,0,0,3-2.64c1-1.85-.18-3.44-1.21-4.94V66.85s10.93,0,10.93-6.57V37a7.27,7.27,0,0,0-.52-2.81c-.92-2.21-3.47-5-10.41-2.34V27.45a70,70,0,0,0-32.79,0S32,36.21,32,36.21Z"/><path id="SVGID" class="cls-4" d="M61.72,72.91V34.55a2.35,2.35,0,1,0-4.64,0V72.91a2.35,2.35,0,1,0,4.64,0"/><path id="SVGID-2" data-name="SVGID" class="cls-4" d="M61.72,72.91V34.55a2.35,2.35,0,1,0-4.64,0V72.91a2.35,2.35,0,1,0,4.64,0"/><g class="cls-5"><rect class="cls-6" x="57.09" y="31.81" width="4.63" height="43.84"/></g><path id="SVGID-3" data-name="SVGID" class="cls-7" d="M54.33,74V37a2.34,2.34,0,1,0-4.64,0V74a2.34,2.34,0,1,0,4.64,0"/><path id="SVGID-4" data-name="SVGID" class="cls-7" d="M54.33,74V37a2.34,2.34,0,1,0-4.64,0V74a2.34,2.34,0,1,0,4.64,0"/><g class="cls-8"><rect class="cls-9" x="49.7" y="34.39" width="4.63" height="42.28"/></g><path id="SVGID-5" data-name="SVGID" class="cls-10" d="M35,72.91V34.55a2.57,2.57,0,0,1,2.32-2.75,2.57,2.57,0,0,1,2.32,2.75V72.91a2.56,2.56,0,0,1-2.32,2.74A2.56,2.56,0,0,1,35,72.91"/><path id="SVGID-6" data-name="SVGID" class="cls-10" d="M35,72.91V34.55a2.57,2.57,0,0,1,2.32-2.75,2.57,2.57,0,0,1,2.32,2.75V72.91a2.56,2.56,0,0,1-2.32,2.74A2.56,2.56,0,0,1,35,72.91"/><g class="cls-11"><rect class="cls-12" x="35.04" y="31.81" width="4.63" height="43.84"/></g><path id="SVGID-7" data-name="SVGID" class="cls-13" d="M42.37,74.65v-37a2.34,2.34,0,1,1,4.64,0v37a2.34,2.34,0,1,1-4.64,0"/><path id="SVGID-8" data-name="SVGID" class="cls-13" d="M42.37,74.65v-37a2.34,2.34,0,1,1,4.64,0v37a2.34,2.34,0,1,1-4.64,0"/><g class="cls-14"><rect class="cls-15" x="42.37" y="35" width="4.63" height="42.28"/></g><path class="cls-2" d="M64.92,38.59s5.78-4.3,5.82,0,0,19.29,0,19.29,0,4.34-5.82,3.3Z"/><path class="cls-16" d="M34.88,31c.91.47,1.39.61,2.24,0,.38-.25,1.28-1.85,1.71-2a3,3,0,0,1,3.71,2,6.22,6.22,0,0,1,.05,2,40.43,40.43,0,0,0-.46,6.2,1.52,1.52,0,0,0,.51,1.27,1.07,1.07,0,0,0,1.26-.18,2.12,2.12,0,0,0,.58-1.21c.48-2.47-.87-5-.69-7.46a2.52,2.52,0,0,1,.47-1.39c.28-.33,1-.71,1.27-.13a1.29,1.29,0,0,1,0,.73c-.07.36-.13.73-.21,1.1a2.3,2.3,0,0,0,0,.69.75.75,0,0,0,.34.57.81.81,0,0,0,1-.25c.45-.57.22-1.32.16-2a2.69,2.69,0,0,1,.73-2c1.65-1.78,4.53-1.38,6.72-1.37a38.15,38.15,0,0,1,5.65.4c1.66.25,3.52,1.11,5-.12a3.89,3.89,0,0,0,1.44-3.61c-.75-3.74-4.28-5-7.59-5.76a31,31,0,0,0-6-.92,16.57,16.57,0,0,0-5.64.84c-2.81.92-5.37,2.47-8.39,2.76a17.13,17.13,0,0,0-3.05.28,7,7,0,0,0-2.34,1.18A7.33,7.33,0,0,0,30.39,27a25.57,25.57,0,0,0-.3,3.72,15.83,15.83,0,0,1-.84,3.71c-1.13,3.37-2.24,5.61,1.13,5.61s2.24-4.48,2.24-5.61S32.65,29.89,34.88,31Z"/></g></g></svg>