<?xml version="1.0" ?><svg id="katman_1" style="enable-background:new 0 0 512 512;" version="1.1" viewBox="0 0 512 512" xml:space="preserve" xmlns="http://www.w3.org/2000/svg" xmlns:xlink="http://www.w3.org/1999/xlink"><style type="text/css">
	.st0{fill:#52B36E;}
	.st1{fill:#2CAB61;}
	.st2{fill:#FFFFFF;}
</style><g><g><circle class="st0" cx="256" cy="256" r="250"/></g><path class="st1" d="M505.4,273.6c-0.3-0.4-0.8-0.9-1.4-1.5c-32.5-32.5-64.9-64.9-97.4-97.4c-2.4-2.4-4.9-3.5-8.3-3.4   c-47.2,0.1-94.4,0-141.6,0c-47.1,0-94.2,0-141.3,0c-1,0-2.1,0-3.1,0.1c-3.1,0.5-5.3,2.8-5.5,6c-0.1,0.8,0,1.6,0,2.4   c0,51.2,0,102.4-0.1,153.6c0,3.3,1.1,5.7,3.4,8c54.2,54.1,108.4,108.3,162.6,162.5c0.4,0.4,0.8,0.8,1.2,1.2   c0.1,0.1,0.1,0.1,0.2,0.2C397.9,496.5,496.7,397.5,505.4,273.6z"/><g><path class="st2" d="M399.6,170.8H112.4c-3.6,0-6.4,2.9-6.4,6.4v157.4c0,3.6,2.9,6.4,6.4,6.4h287.1c3.6,0,6.4-2.9,6.4-6.4V177.3    C406,173.7,403.1,170.8,399.6,170.8z M118.9,183.7h32.7c-2.7,16.7-16,30-32.7,32.7V183.7z M118.9,328.3v-32.7    c16.7,2.7,30,16,32.7,32.7H118.9z M393.1,328.3h-32.7c2.7-16.7,16-30,32.7-32.7V328.3z M393.1,282.5    c-23.9,2.9-42.8,21.9-45.8,45.8H164.7c-2.9-23.9-21.9-42.8-45.8-45.8v-53c23.9-2.9,42.8-21.9,45.8-45.8h182.7    c2.9,23.9,21.9,42.8,45.8,45.8L393.1,282.5L393.1,282.5z M393.1,216.5c-16.7-2.7-30-16-32.7-32.7h32.7V216.5z"/><path class="st2" d="M260.8,248.5c-10.2-4.2-12-6.5-12-10.1c0-3.3,2.4-6.8,9-6.8c6.6,0,10.7,2.4,12.5,3.4l2.7,1.5l4.6-12.2    l-1.9-1.1c-3.8-2.2-8.1-3.6-12.9-4v-10.8h-12.1v11.5c-10.1,2.5-16.5,10-16.5,19.8c0,12,9.5,17.4,19.7,21.4    c9.4,3.8,10.7,7.4,10.7,10.6c0,4.8-4.2,8.1-10.4,8.1c-5,0-10.2-1.6-14.3-4.3l-2.8-1.9l-4.4,12.4l1.6,1.2c3.8,2.7,9.7,4.6,15.7,5.2    v11.2h12.2v-11.9c10.4-2.6,17.3-10.7,17.3-20.8C279.4,257.8,269.4,252,260.8,248.5z"/></g></g></svg>