<?xml version="1.0" ?><svg id="katman_1" style="enable-background:new 0 0 512 512;" version="1.1" viewBox="0 0 512 512" xml:space="preserve" xmlns="http://www.w3.org/2000/svg" xmlns:xlink="http://www.w3.org/1999/xlink"><style type="text/css">
	.st0{fill:#E67D21;}
	.st1{fill:#D35415;}
	.st2{fill:#FFFFFF;}
</style><g><g><circle class="st0" cx="256" cy="256" r="250"/></g><path class="st1" d="M402.1,139.4c-4.1-4.1-8.9-6.2-14.8-6.2c-43.5,0-87,0-130.5,0s-87,0-130.5,0c-1.2,0-2.4,0-3.6,0.2   c-9.9,1.6-16.2,10.3-16,19.2c0.2,6.6,0.2,13.3,0,19.9c-0.1,6.2,2.1,11.3,6.5,15.6c38.6,38.5,77.1,77,115.6,115.5   c1.3,1.3,1.9,2.5,1.9,4.4c-0.1,21.4,0,42.9-0.1,64.3c0,2.6,0.8,4.6,2.6,6.4c36.8,36.7,73.5,73.5,110.3,110.3c0.4,0.4,0.7,0.6,1,0.8   C438.9,454.1,506,362.9,506,256c0-4.4-0.1-8.7-0.3-13.1c-0.1-0.1-0.2-0.3-0.4-0.4C470.9,208.2,436.5,173.8,402.1,139.4z"/><path class="st2" d="M387.3,132.8H124.7c-10.3,0-18.7,8.4-18.7,18.7v22c0,10.3,8.4,18.7,18.7,18.7h8.7l96.4,96.4v84.4   c0,2.5,1.5,4.8,3.8,5.7c0.8,0.3,1.6,0.5,2.4,0.5c1.6,0,3.2-0.6,4.4-1.8l40.2-40.2c1.2-1.2,1.8-2.7,1.8-4.4v-44.2l96.4-96.4h8.5   c10.3,0,18.7-8.4,18.7-18.7v-22C406,141.2,397.6,132.8,387.3,132.8z M271.8,281.6c-1.2,1.2-1.8,2.8-1.8,4.5v44.2l-27.7,27.7v-72   c0-1.6-0.6-3.2-1.8-4.4L151,192.1h210.3L271.8,281.6z M393.6,173.5c0,3.4-2.8,6.2-6.2,6.2H124.7c-3.4,0-6.2-2.8-6.2-6.2v-22   c0-3.4,2.8-6.2,6.2-6.2h262.7c3.4,0,6.2,2.8,6.2,6.2V173.5z"/></g></svg>