<?xml version="1.0" encoding="UTF-8" standalone="no"?>
<!DOCTYPE svg PUBLIC "-//W3C//DTD SVG 1.1//EN"
 "http://www.w3.org/Graphics/SVG/1.1/DTD/svg11.dtd">
<!-- Generated by graphviz version 2.47.3 (20210619.1520)
 -->
<!-- Title: dependencies Pages: 1 -->
<svg width="2482pt" height="247pt"
 viewBox="0.00 0.00 2482.00 246.80" xmlns="http://www.w3.org/2000/svg" xmlns:xlink="http://www.w3.org/1999/xlink">
<g id="graph0" class="graph" transform="scale(1 1) rotate(0) translate(4 242.8)">
<title>dependencies</title>
<polygon fill="white" stroke="transparent" points="-4,4 -4,-242.8 2478,-242.8 2478,4 -4,4"/>
<text text-anchor="middle" x="1237" y="-8.2" font-family="sans-serif" font-size="14.00">dependencies</text>
<g id="clust1" class="cluster">
<title>cluster_AppModule</title>
<polygon fill="none" stroke="black" stroke-dasharray="1,5" points="8,-32.8 8,-230.8 2466,-230.8 2466,-32.8 8,-32.8"/>
</g>
<g id="clust20" class="cluster">
<title>cluster_AppModule_bootstrap</title>
<polygon fill="none" stroke="black" points="1156,-170.8 1156,-222.8 1280,-222.8 1280,-170.8 1156,-170.8"/>
</g>
<g id="clust21" class="cluster">
<title>cluster_AppModule_providers</title>
<polygon fill="none" stroke="black" points="2302,-40.8 2302,-92.8 2458,-92.8 2458,-40.8 2302,-40.8"/>
</g>
<g id="clust18" class="cluster">
<title>cluster_AppModule_imports</title>
<polygon fill="none" stroke="black" points="2150,-40.8 2150,-92.8 2294,-92.8 2294,-40.8 2150,-40.8"/>
</g>
<g id="clust2" class="cluster">
<title>cluster_AppModule_declarations</title>
<polygon fill="none" stroke="black" points="16,-40.8 16,-92.8 2142,-92.8 2142,-40.8 16,-40.8"/>
</g>
<!-- AboutUsComponent -->
<g id="node1" class="node">
<title>AboutUsComponent</title>
<polygon fill="#ffffb3" stroke="black" points="2133.88,-84.8 2002.12,-84.8 2002.12,-48.8 2133.88,-48.8 2133.88,-84.8"/>
<text text-anchor="middle" x="2068" y="-62.6" font-family="Times,serif" font-size="14.00">AboutUsComponent</text>
</g>
<!-- AppModule -->
<g id="node16" class="node">
<title>AppModule</title>
<polygon fill="#8dd3c7" stroke="black" points="1259.66,-149.8 1256.66,-153.8 1235.66,-153.8 1232.66,-149.8 1176.34,-149.8 1176.34,-113.8 1259.66,-113.8 1259.66,-149.8"/>
<text text-anchor="middle" x="1218" y="-127.6" font-family="Times,serif" font-size="14.00">AppModule</text>
</g>
<!-- AboutUsComponent&#45;&gt;AppModule -->
<g id="edge1" class="edge">
<title>AboutUsComponent&#45;&gt;AppModule</title>
<path fill="none" stroke="black" d="M2068,-85.08C2068,-106.12 2068,-137.8 2068,-137.8 2068,-137.8 1269.86,-137.8 1269.86,-137.8"/>
<polygon fill="black" stroke="black" points="1269.86,-134.3 1259.86,-137.8 1269.86,-141.3 1269.86,-134.3"/>
</g>
<!-- AppComponent -->
<g id="node2" class="node">
<title>AppComponent</title>
<polygon fill="#ffffb3" stroke="black" points="1983.94,-84.8 1878.06,-84.8 1878.06,-48.8 1983.94,-48.8 1983.94,-84.8"/>
<text text-anchor="middle" x="1931" y="-62.6" font-family="Times,serif" font-size="14.00">AppComponent</text>
</g>
<!-- AppComponent&#45;&gt;AppModule -->
<g id="edge2" class="edge">
<title>AppComponent&#45;&gt;AppModule</title>
<path fill="none" stroke="black" d="M1931,-85.11C1931,-104.95 1931,-133.8 1931,-133.8 1931,-133.8 1269.68,-133.8 1269.68,-133.8"/>
<polygon fill="black" stroke="black" points="1269.68,-130.3 1259.68,-133.8 1269.68,-137.3 1269.68,-130.3"/>
</g>
<!-- BeerComponent -->
<g id="node3" class="node">
<title>BeerComponent</title>
<polygon fill="#ffffb3" stroke="black" points="1859.76,-84.8 1752.24,-84.8 1752.24,-48.8 1859.76,-48.8 1859.76,-84.8"/>
<text text-anchor="middle" x="1806" y="-62.6" font-family="Times,serif" font-size="14.00">BeerComponent</text>
</g>
<!-- BeerComponent&#45;&gt;AppModule -->
<g id="edge3" class="edge">
<title>BeerComponent&#45;&gt;AppModule</title>
<path fill="none" stroke="black" d="M1806,-85.02C1806,-103.63 1806,-129.8 1806,-129.8 1806,-129.8 1269.82,-129.8 1269.82,-129.8"/>
<polygon fill="black" stroke="black" points="1269.82,-126.3 1259.82,-129.8 1269.82,-133.3 1269.82,-126.3"/>
</g>
<!-- CarritoComponent -->
<g id="node4" class="node">
<title>CarritoComponent</title>
<polygon fill="#ffffb3" stroke="black" points="1734.49,-84.8 1613.51,-84.8 1613.51,-48.8 1734.49,-48.8 1734.49,-84.8"/>
<text text-anchor="middle" x="1674" y="-62.6" font-family="Times,serif" font-size="14.00">CarritoComponent</text>
</g>
<!-- CarritoComponent&#45;&gt;AppModule -->
<g id="edge4" class="edge">
<title>CarritoComponent&#45;&gt;AppModule</title>
<path fill="none" stroke="black" d="M1674,-84.82C1674,-102.17 1674,-125.8 1674,-125.8 1674,-125.8 1269.68,-125.8 1269.68,-125.8"/>
<polygon fill="black" stroke="black" points="1269.68,-122.3 1259.68,-125.8 1269.68,-129.3 1269.68,-122.3"/>
</g>
<!-- ChampagneComponent -->
<g id="node5" class="node">
<title>ChampagneComponent</title>
<polygon fill="#ffffb3" stroke="black" points="1595.2,-84.8 1446.8,-84.8 1446.8,-48.8 1595.2,-48.8 1595.2,-84.8"/>
<text text-anchor="middle" x="1521" y="-62.6" font-family="Times,serif" font-size="14.00">ChampagneComponent</text>
</g>
<!-- ChampagneComponent&#45;&gt;AppModule -->
<g id="edge5" class="edge">
<title>ChampagneComponent&#45;&gt;AppModule</title>
<path fill="none" stroke="black" d="M1521,-84.81C1521,-100.85 1521,-121.8 1521,-121.8 1521,-121.8 1269.81,-121.8 1269.81,-121.8"/>
<polygon fill="black" stroke="black" points="1269.81,-118.3 1259.81,-121.8 1269.81,-125.3 1269.81,-118.3"/>
</g>
<!-- ContactComponent -->
<g id="node6" class="node">
<title>ContactComponent</title>
<polygon fill="#ffffb3" stroke="black" points="1428.38,-84.8 1303.62,-84.8 1303.62,-48.8 1428.38,-48.8 1428.38,-84.8"/>
<text text-anchor="middle" x="1366" y="-62.6" font-family="Times,serif" font-size="14.00">ContactComponent</text>
</g>
<!-- ContactComponent&#45;&gt;AppModule -->
<g id="edge6" class="edge">
<title>ContactComponent&#45;&gt;AppModule</title>
<path fill="none" stroke="black" d="M1366,-84.92C1366,-99.58 1366,-117.8 1366,-117.8 1366,-117.8 1270.01,-117.8 1270.01,-117.8"/>
<polygon fill="black" stroke="black" points="1270.02,-114.3 1260.01,-117.8 1270.01,-121.3 1270.02,-114.3"/>
</g>
<!-- CoverageComponent -->
<g id="node7" class="node">
<title>CoverageComponent</title>
<polygon fill="#ffffb3" stroke="black" points="1285.47,-84.8 1150.53,-84.8 1150.53,-48.8 1285.47,-48.8 1285.47,-84.8"/>
<text text-anchor="middle" x="1218" y="-62.6" font-family="Times,serif" font-size="14.00">CoverageComponent</text>
</g>
<!-- CoverageComponent&#45;&gt;AppModule -->
<g id="edge7" class="edge">
<title>CoverageComponent&#45;&gt;AppModule</title>
<path fill="none" stroke="black" d="M1218,-84.91C1218,-84.91 1218,-103.79 1218,-103.79"/>
<polygon fill="black" stroke="black" points="1214.5,-103.79 1218,-113.79 1221.5,-103.79 1214.5,-103.79"/>
</g>
<!-- ErrorComponent -->
<g id="node8" class="node">
<title>ErrorComponent</title>
<polygon fill="#ffffb3" stroke="black" points="1132.37,-84.8 1021.63,-84.8 1021.63,-48.8 1132.37,-48.8 1132.37,-84.8"/>
<text text-anchor="middle" x="1077" y="-62.6" font-family="Times,serif" font-size="14.00">ErrorComponent</text>
</g>
<!-- ErrorComponent&#45;&gt;AppModule -->
<g id="edge8" class="edge">
<title>ErrorComponent&#45;&gt;AppModule</title>
<path fill="none" stroke="black" d="M1077,-84.92C1077,-99.58 1077,-117.8 1077,-117.8 1077,-117.8 1166.08,-117.8 1166.08,-117.8"/>
<polygon fill="black" stroke="black" points="1166.08,-121.3 1176.08,-117.8 1166.08,-114.3 1166.08,-121.3"/>
</g>
<!-- FooterComponent -->
<g id="node9" class="node">
<title>FooterComponent</title>
<polygon fill="#ffffb3" stroke="black" points="1003.88,-84.8 886.12,-84.8 886.12,-48.8 1003.88,-48.8 1003.88,-84.8"/>
<text text-anchor="middle" x="945" y="-62.6" font-family="Times,serif" font-size="14.00">FooterComponent</text>
</g>
<!-- FooterComponent&#45;&gt;AppModule -->
<g id="edge9" class="edge">
<title>FooterComponent&#45;&gt;AppModule</title>
<path fill="none" stroke="black" d="M945,-84.81C945,-100.85 945,-121.8 945,-121.8 945,-121.8 1166.24,-121.8 1166.24,-121.8"/>
<polygon fill="black" stroke="black" points="1166.24,-125.3 1176.24,-121.8 1166.24,-118.3 1166.24,-125.3"/>
</g>
<!-- HeaderComponent -->
<g id="node10" class="node">
<title>HeaderComponent</title>
<polygon fill="#ffffb3" stroke="black" points="867.74,-84.8 746.26,-84.8 746.26,-48.8 867.74,-48.8 867.74,-84.8"/>
<text text-anchor="middle" x="807" y="-62.6" font-family="Times,serif" font-size="14.00">HeaderComponent</text>
</g>
<!-- HeaderComponent&#45;&gt;AppModule -->
<g id="edge10" class="edge">
<title>HeaderComponent&#45;&gt;AppModule</title>
<path fill="none" stroke="black" d="M807,-84.82C807,-102.17 807,-125.8 807,-125.8 807,-125.8 1166.33,-125.8 1166.33,-125.8"/>
<polygon fill="black" stroke="black" points="1166.33,-129.3 1176.33,-125.8 1166.33,-122.3 1166.33,-129.3"/>
</g>
<!-- HomeComponent -->
<g id="node11" class="node">
<title>HomeComponent</title>
<polygon fill="#ffffb3" stroke="black" points="727.55,-84.8 612.45,-84.8 612.45,-48.8 727.55,-48.8 727.55,-84.8"/>
<text text-anchor="middle" x="670" y="-62.6" font-family="Times,serif" font-size="14.00">HomeComponent</text>
</g>
<!-- HomeComponent&#45;&gt;AppModule -->
<g id="edge11" class="edge">
<title>HomeComponent&#45;&gt;AppModule</title>
<path fill="none" stroke="black" d="M670,-85.02C670,-103.63 670,-129.8 670,-129.8 670,-129.8 1165.91,-129.8 1165.91,-129.8"/>
<polygon fill="black" stroke="black" points="1165.91,-133.3 1175.91,-129.8 1165.91,-126.3 1165.91,-133.3"/>
</g>
<!-- HowtocallComponent -->
<g id="node12" class="node">
<title>HowtocallComponent</title>
<polygon fill="#ffffb3" stroke="black" points="593.65,-84.8 454.35,-84.8 454.35,-48.8 593.65,-48.8 593.65,-84.8"/>
<text text-anchor="middle" x="524" y="-62.6" font-family="Times,serif" font-size="14.00">HowtocallComponent</text>
</g>
<!-- HowtocallComponent&#45;&gt;AppModule -->
<g id="edge12" class="edge">
<title>HowtocallComponent&#45;&gt;AppModule</title>
<path fill="none" stroke="black" d="M524,-85.11C524,-104.95 524,-133.8 524,-133.8 524,-133.8 1166.15,-133.8 1166.15,-133.8"/>
<polygon fill="black" stroke="black" points="1166.15,-137.3 1176.15,-133.8 1166.15,-130.3 1166.15,-137.3"/>
</g>
<!-- ProviderComponent -->
<g id="node13" class="node">
<title>ProviderComponent</title>
<polygon fill="#ffffb3" stroke="black" points="435.54,-84.8 306.46,-84.8 306.46,-48.8 435.54,-48.8 435.54,-84.8"/>
<text text-anchor="middle" x="371" y="-62.6" font-family="Times,serif" font-size="14.00">ProviderComponent</text>
</g>
<!-- ProviderComponent&#45;&gt;AppModule -->
<g id="edge13" class="edge">
<title>ProviderComponent&#45;&gt;AppModule</title>
<path fill="none" stroke="black" d="M371,-85.08C371,-106.12 371,-137.8 371,-137.8 371,-137.8 1166.29,-137.8 1166.29,-137.8"/>
<polygon fill="black" stroke="black" points="1166.29,-141.3 1176.29,-137.8 1166.29,-134.3 1166.29,-141.3"/>
</g>
<!-- SecurityComponent -->
<g id="node14" class="node">
<title>SecurityComponent</title>
<polygon fill="#ffffb3" stroke="black" points="287.99,-84.8 160.01,-84.8 160.01,-48.8 287.99,-48.8 287.99,-84.8"/>
<text text-anchor="middle" x="224" y="-62.6" font-family="Times,serif" font-size="14.00">SecurityComponent</text>
</g>
<!-- SecurityComponent&#45;&gt;AppModule -->
<g id="edge14" class="edge">
<title>SecurityComponent&#45;&gt;AppModule</title>
<path fill="none" stroke="black" d="M224,-84.96C224,-107.15 224,-141.8 224,-141.8 224,-141.8 1166.24,-141.8 1166.24,-141.8"/>
<polygon fill="black" stroke="black" points="1166.24,-145.3 1176.24,-141.8 1166.24,-138.3 1166.24,-145.3"/>
</g>
<!-- VodkaComponent -->
<g id="node15" class="node">
<title>VodkaComponent</title>
<polygon fill="#ffffb3" stroke="black" points="142.15,-84.8 23.85,-84.8 23.85,-48.8 142.15,-48.8 142.15,-84.8"/>
<text text-anchor="middle" x="83" y="-62.6" font-family="Times,serif" font-size="14.00">VodkaComponent</text>
</g>
<!-- VodkaComponent&#45;&gt;AppModule -->
<g id="edge15" class="edge">
<title>VodkaComponent&#45;&gt;AppModule</title>
<path fill="none" stroke="black" d="M83,-85.12C83,-108.46 83,-145.8 83,-145.8 83,-145.8 1166.26,-145.8 1166.26,-145.8"/>
<polygon fill="black" stroke="black" points="1166.26,-149.3 1176.26,-145.8 1166.26,-142.3 1166.26,-149.3"/>
</g>
<!-- AppComponent  -->
<g id="node18" class="node">
<title>AppComponent </title>
<polygon fill="#80b1d3" stroke="black" points="1272.44,-214.8 1163.56,-214.8 1163.56,-178.8 1272.44,-178.8 1272.44,-214.8"/>
<text text-anchor="middle" x="1218" y="-192.6" font-family="Times,serif" font-size="14.00">AppComponent </text>
</g>
<!-- AppModule&#45;&gt;AppComponent  -->
<g id="edge17" class="edge">
<title>AppModule&#45;&gt;AppComponent </title>
<path fill="none" stroke="black" stroke-dasharray="1,5" d="M1218,-149.91C1218,-149.91 1218,-168.79 1218,-168.79"/>
<polygon fill="black" stroke="black" points="1214.5,-168.79 1218,-178.79 1221.5,-168.79 1214.5,-168.79"/>
</g>
<!-- AppRoutingModule -->
<g id="node17" class="node">
<title>AppRoutingModule</title>
<polygon fill="#8dd3c7" stroke="black" points="2286.27,-84.8 2283.27,-88.8 2262.27,-88.8 2259.27,-84.8 2157.73,-84.8 2157.73,-48.8 2286.27,-48.8 2286.27,-84.8"/>
<text text-anchor="middle" x="2222" y="-62.6" font-family="Times,serif" font-size="14.00">AppRoutingModule</text>
</g>
<!-- AppRoutingModule&#45;&gt;AppModule -->
<g id="edge16" class="edge">
<title>AppRoutingModule&#45;&gt;AppModule</title>
<path fill="none" stroke="black" d="M2222,-84.96C2222,-107.15 2222,-141.8 2222,-141.8 2222,-141.8 1269.86,-141.8 1269.86,-141.8"/>
<polygon fill="black" stroke="black" points="1269.86,-138.3 1259.86,-141.8 1269.86,-145.3 1269.86,-138.3"/>
</g>
<!-- ProductService -->
<g id="node19" class="node">
<title>ProductService</title>
<ellipse fill="#fdb462" stroke="black" cx="2380" cy="-66.8" rx="70.06" ry="18"/>
<text text-anchor="middle" x="2380" y="-62.6" font-family="Times,serif" font-size="14.00">ProductService</text>
</g>
<!-- ProductService&#45;&gt;AppModule -->
<g id="edge18" class="edge">
<title>ProductService&#45;&gt;AppModule</title>
<path fill="none" stroke="black" d="M2380,-85.12C2380,-108.46 2380,-145.8 2380,-145.8 2380,-145.8 1269.7,-145.8 1269.7,-145.8"/>
<polygon fill="black" stroke="black" points="1269.7,-142.3 1259.7,-145.8 1269.7,-149.3 1269.7,-142.3"/>
</g>
</g>
</svg>
